<svg width="378" height="127" viewBox="0 0 378 127" fill="none" xmlns="http://www.w3.org/2000/svg">
<path d="M127 111.944C127 115.481 124.95 116.334 122.465 113.83L88.0829 79.4453C85.3649 76.4 83.7655 72.5194 83.5481 68.4433V6.43977C83.5553 4.73404 84.2361 3.10022 85.4422 1.89408C86.6482 0.68793 88.2819 0.00716203 89.9875 0H120.515C122.223 0.00477402 123.859 0.684462 125.067 1.89087C126.275 3.09727 126.957 4.73247 126.964 6.43977L127 111.944ZM13.1778 4.55317C10.6746 2.04981 11.5181 0.0181026 15.0643 0.0181026H64.9012C66.6075 0.0228894 68.2426 0.702918 69.4492 1.90958C70.6558 3.11624 71.3358 4.75146 71.3406 6.45793V56.3436C71.3406 59.89 69.2909 60.7336 66.8058 58.2303L13.1778 4.55317ZM113.849 122.465C116.352 124.968 115.509 127 111.963 127H62.1261C60.4197 126.995 58.7846 126.315 57.578 125.109C56.3715 123.902 55.6914 122.267 55.6866 120.56V70.6745C55.6866 67.1371 57.7363 66.2846 60.2214 68.7879L113.849 122.465ZM0.036092 15.0836C0.036092 11.5372 2.07673 10.6937 4.57084 13.197L38.9535 47.582C41.6726 50.623 43.2724 54.5011 43.4882 58.5749V120.56C43.4834 122.267 42.8034 123.902 41.5968 125.109C40.3902 126.315 38.7551 126.995 37.0488 127H6.43921C4.73213 126.998 3.09561 126.318 1.88852 125.111C0.681428 123.904 0.00239928 122.267 0 120.56L0.036092 15.0836Z" fill="white"/>
<path d="M172 64.95C174.267 65.2167 175.883 65.9833 176.85 67.25C177.817 68.4833 178.3 69.9833 178.3 71.75C178.3 72.85 178.133 73.9 177.8 74.9C177.467 75.8667 177.067 76.7 176.6 77.4C176.133 78.0667 175.733 78.5 175.4 78.7C174.067 79.5667 170 80 163.2 80H153.5V51.5H165.25C167.917 51.5 170.067 51.65 171.7 51.95C173.367 52.2167 174.717 52.85 175.75 53.85C176.783 54.8167 177.3 56.3 177.3 58.3C177.3 60.0333 176.867 61.4333 176 62.5C175.167 63.5667 173.833 64.3 172 64.7V64.95ZM168 57.55C167.667 57.2167 167.267 57.0167 166.8 56.95C166.367 56.85 165.667 56.8 164.7 56.8C163.733 56.8 163 56.8167 162.5 56.85V62.95H163C163.167 62.95 163.867 62.95 165.1 62.95C166.333 62.95 167.15 62.8667 167.55 62.7C167.85 62.5667 168.117 62.2167 168.35 61.65C168.617 61.0833 168.75 60.4667 168.75 59.8C168.75 58.8 168.5 58.05 168 57.55ZM168.85 74.25C169.083 74.05 169.267 73.6833 169.4 73.15C169.567 72.5833 169.65 72.0167 169.65 71.45C169.65 70.75 169.55 70.1 169.35 69.5C169.183 68.8667 168.95 68.4167 168.65 68.15C168.35 67.85 167.917 67.65 167.35 67.55C166.817 67.45 165.9 67.4 164.6 67.4C163.767 67.4 163.067 67.4167 162.5 67.45V74.7C164.067 74.7333 165.467 74.7167 166.7 74.65C167.933 74.55 168.65 74.4167 168.85 74.25ZM204.614 57V80H197.664L196.714 76.15C194.314 79.05 191.448 80.5 188.114 80.5C186.914 80.5 185.781 80.3333 184.714 80C183.681 79.6667 182.898 79.1833 182.364 78.55C182.064 78.1833 181.831 77.2667 181.664 75.8C181.531 74.3333 181.464 72.1 181.464 69.1V57H190.014V69C190.014 69.6667 190.031 70.45 190.064 71.35C190.098 72.25 190.198 72.8167 190.364 73.05C190.598 73.3833 191.264 73.55 192.364 73.55L193.164 73.5C194.098 73.4667 195.064 73.25 196.064 72.85V57H204.614ZM220.714 56.6C222.281 56.6 223.914 56.7167 225.614 56.95C227.314 57.15 229.297 57.4333 231.564 57.8V77.7C231.564 82.4667 229.981 86.1667 226.814 88.8C226.414 89.1333 225.514 89.4167 224.114 89.65C222.714 89.8833 221.131 90 219.364 90C215.531 90 212.497 89.5 210.264 88.5C210.231 87.7667 210.281 86.8 210.414 85.6C210.581 84.4 210.747 83.45 210.914 82.75C213.314 83.1167 215.664 83.3 217.964 83.3C219.131 83.3 220.114 83.2333 220.914 83.1C221.747 83 222.264 82.8333 222.464 82.6C222.731 82.3333 222.931 81.3333 223.064 79.6C223.097 79.1333 223.114 78.45 223.114 77.55V76.3C222.281 77.5333 221.214 78.4167 219.914 78.95C218.614 79.4833 217.447 79.75 216.414 79.75C213.614 79.75 211.497 78.8333 210.064 77C208.631 75.1667 207.914 72.4833 207.914 68.95C207.914 66.6167 208.231 64.4333 208.864 62.4C209.531 60.3333 210.431 58.9 211.564 58.1C212.297 57.6 213.481 57.2333 215.114 57C216.781 56.7333 218.647 56.6 220.714 56.6ZM219.664 73.5C220.897 73.5 222.014 73.3 223.014 72.9V62.45C222.647 62.3833 222.097 62.3167 221.364 62.25C221.031 62.2167 220.531 62.2 219.864 62.2C218.831 62.2 218.181 62.3 217.914 62.5C217.547 62.7667 217.247 63.5167 217.014 64.75C216.814 65.95 216.714 67.2167 216.714 68.55C216.714 70.3833 216.914 71.6667 217.314 72.4C217.747 73.1333 218.531 73.5 219.664 73.5ZM254.568 64.95C256.835 65.2167 258.452 65.9833 259.418 67.25C260.385 68.4833 260.868 69.9833 260.868 71.75C260.868 72.85 260.702 73.9 260.368 74.9C260.035 75.8667 259.635 76.7 259.168 77.4C258.702 78.0667 258.302 78.5 257.968 78.7C256.635 79.5667 252.568 80 245.768 80H236.068V51.5H247.818C250.485 51.5 252.635 51.65 254.268 51.95C255.935 52.2167 257.285 52.85 258.318 53.85C259.352 54.8167 259.868 56.3 259.868 58.3C259.868 60.0333 259.435 61.4333 258.568 62.5C257.735 63.5667 256.402 64.3 254.568 64.7V64.95ZM250.568 57.55C250.235 57.2167 249.835 57.0167 249.368 56.95C248.935 56.85 248.235 56.8 247.268 56.8C246.302 56.8 245.568 56.8167 245.068 56.85V62.95H245.568C245.735 62.95 246.435 62.95 247.668 62.95C248.902 62.95 249.718 62.8667 250.118 62.7C250.418 62.5667 250.685 62.2167 250.918 61.65C251.185 61.0833 251.318 60.4667 251.318 59.8C251.318 58.8 251.068 58.05 250.568 57.55ZM251.418 74.25C251.652 74.05 251.835 73.6833 251.968 73.15C252.135 72.5833 252.218 72.0167 252.218 71.45C252.218 70.75 252.118 70.1 251.918 69.5C251.752 68.8667 251.518 68.4167 251.218 68.15C250.918 67.85 250.485 67.65 249.918 67.55C249.385 67.45 248.468 67.4 247.168 67.4C246.335 67.4 245.635 67.4167 245.068 67.45V74.7C246.635 74.7333 248.035 74.7167 249.268 74.65C250.502 74.55 251.218 74.4167 251.418 74.25ZM264.333 50L272.883 49.65V80H264.333V50ZM288.222 80.65C284.222 80.65 281.222 79.7167 279.222 77.85C277.256 75.95 276.272 72.9667 276.272 68.9C276.272 66.6667 276.472 64.7167 276.872 63.05C277.306 61.35 277.822 60.1667 278.422 59.5C279.189 58.6333 280.589 57.9167 282.622 57.35C284.689 56.7833 286.622 56.5 288.422 56.5C292.722 56.5 295.789 57.4167 297.622 59.25C299.456 61.0833 300.372 64.0167 300.372 68.05C300.372 72.3833 299.389 75.5667 297.422 77.6C295.456 79.6333 292.389 80.65 288.222 80.65ZM288.372 74.8C289.672 74.8 290.522 74.35 290.922 73.45C291.322 72.5167 291.522 70.8833 291.522 68.55C291.522 66.9167 291.439 65.6667 291.272 64.8C291.106 63.9 290.789 63.25 290.322 62.85C289.889 62.4167 289.206 62.2 288.272 62.2C286.939 62.2 286.172 62.3167 285.972 62.55C285.706 62.7833 285.489 63.5167 285.322 64.75C285.156 65.9833 285.072 67.2667 285.072 68.6C285.072 70.8667 285.289 72.4667 285.722 73.4C286.189 74.3333 287.072 74.8 288.372 74.8ZM315.636 56.6C317.203 56.6 318.836 56.7167 320.536 56.95C322.236 57.15 324.219 57.4333 326.486 57.8V77.7C326.486 82.4667 324.903 86.1667 321.736 88.8C321.336 89.1333 320.436 89.4167 319.036 89.65C317.636 89.8833 316.053 90 314.286 90C310.453 90 307.419 89.5 305.186 88.5C305.153 87.7667 305.203 86.8 305.336 85.6C305.503 84.4 305.669 83.45 305.836 82.75C308.236 83.1167 310.586 83.3 312.886 83.3C314.053 83.3 315.036 83.2333 315.836 83.1C316.669 83 317.186 82.8333 317.386 82.6C317.653 82.3333 317.853 81.3333 317.986 79.6C318.019 79.1333 318.036 78.45 318.036 77.55V76.3C317.203 77.5333 316.136 78.4167 314.836 78.95C313.536 79.4833 312.369 79.75 311.336 79.75C308.536 79.75 306.419 78.8333 304.986 77C303.553 75.1667 302.836 72.4833 302.836 68.95C302.836 66.6167 303.153 64.4333 303.786 62.4C304.453 60.3333 305.353 58.9 306.486 58.1C307.219 57.6 308.403 57.2333 310.036 57C311.703 56.7333 313.569 56.6 315.636 56.6ZM314.586 73.5C315.819 73.5 316.936 73.3 317.936 72.9V62.45C317.569 62.3833 317.019 62.3167 316.286 62.25C315.953 62.2167 315.453 62.2 314.786 62.2C313.753 62.2 313.103 62.3 312.836 62.5C312.469 62.7667 312.169 63.5167 311.936 64.75C311.736 65.95 311.636 67.2167 311.636 68.55C311.636 70.3833 311.836 71.6667 312.236 72.4C312.669 73.1333 313.453 73.5 314.586 73.5ZM349.14 72.2C349.14 75.1667 348.19 77.3 346.29 78.6C344.424 79.9 341.757 80.55 338.29 80.55C335.857 80.55 333.057 80.2 329.89 79.5C329.957 78.8333 330.107 77.8833 330.34 76.65C330.607 75.3833 330.824 74.4167 330.99 73.75C332.19 73.95 333.524 74.1167 334.99 74.25C336.457 74.35 337.707 74.4 338.74 74.4C339.64 74.4 340.19 74.35 340.39 74.25C340.424 74.2167 340.457 74.1333 340.49 74C340.557 73.8333 340.59 73.6667 340.59 73.5C340.59 72.8333 340.174 72.3833 339.34 72.15C339.074 72.0833 338.057 71.8 336.29 71.3C334.524 70.8 333.074 69.9 331.94 68.6C330.84 67.2667 330.29 65.6167 330.29 63.65C330.29 62.6167 330.524 61.4667 330.99 60.2C331.457 58.9333 331.957 58.1333 332.49 57.8C332.89 57.5333 333.857 57.2667 335.39 57C336.924 56.7 338.34 56.55 339.64 56.55C342.407 56.55 345.19 56.75 347.99 57.15C347.99 57.75 347.907 58.7667 347.74 60.2C347.574 61.6 347.424 62.4833 347.29 62.85C344.457 62.4833 342.174 62.3 340.44 62.3C339.54 62.3 338.957 62.35 338.69 62.45C338.624 62.4833 338.557 62.5833 338.49 62.75C338.424 62.8833 338.39 63.0667 338.39 63.3C338.39 63.7667 338.54 64.1 338.84 64.3C339.14 64.5333 339.924 64.8167 341.19 65.15C342.69 65.5833 343.974 66.0333 345.04 66.5C346.14 66.9667 347.09 67.6667 347.89 68.6C348.724 69.5333 349.14 70.7333 349.14 72.2Z" fill="white"/>
</svg>
